<svg width="282" height="69" viewBox="0 0 282 69" fill="none" xmlns="http://www.w3.org/2000/svg">
<path d="M64.392 52V26.056H69.3968L82.5344 42.3584H81.4672V26.056H87.76V52H82.7552L69.6912 35.6976H70.7584V52H64.392ZM92.5311 52V26.056H111.152V31.2448H99.0447V36.2128H110.269V41.4384H99.0447V46.7744H111.152V52H92.5311Z" fill="black"/>
<path d="M127.916 52.368C125.83 52.368 123.904 52.1104 122.138 51.5952C120.396 51.0555 118.9 50.3195 117.648 49.3872L119.12 45.6704C119.955 46.2592 120.826 46.7621 121.733 47.1792C122.641 47.5717 123.61 47.8784 124.64 48.0992C125.671 48.2955 126.763 48.3936 127.916 48.3936C129.854 48.3936 131.252 48.0747 132.111 47.4368C132.97 46.7989 133.399 45.9648 133.399 44.9344C133.399 44.0267 133.104 43.3397 132.516 42.8736C131.927 42.3829 130.872 41.9781 129.351 41.6592L125.192 40.8128C122.813 40.3221 121.034 39.5003 119.856 38.3472C118.679 37.1941 118.09 35.6485 118.09 33.7104C118.09 32.0912 118.519 30.6805 119.378 29.4784C120.237 28.2763 121.439 27.344 122.984 26.6816C124.53 26.0192 126.333 25.688 128.394 25.688C130.234 25.688 131.939 25.9579 133.509 26.4976C135.079 27.0128 136.392 27.7611 137.447 28.7424L135.975 32.2752C134.92 31.392 133.767 30.7419 132.516 30.3248C131.264 29.8832 129.866 29.6624 128.32 29.6624C126.579 29.6624 125.217 30.0059 124.236 30.6928C123.279 31.3552 122.8 32.2752 122.8 33.4528C122.8 34.3605 123.095 35.0843 123.684 35.624C124.297 36.1637 125.327 36.5808 126.775 36.8752L130.896 37.6848C133.35 38.1755 135.165 38.9851 136.343 40.1136C137.52 41.2176 138.109 42.7141 138.109 44.6032C138.109 46.1488 137.692 47.5104 136.858 48.688C136.024 49.8411 134.846 50.7488 133.325 51.4112C131.804 52.0491 130.001 52.368 127.916 52.368ZM152.591 52V39.7456L153.585 42.5792L142.434 26.056H147.918L155.572 37.832H154.542L162.196 26.056H167.495L156.382 42.5792L157.338 39.7456V52H152.591ZM182.138 52.368C180.053 52.368 178.127 52.1104 176.361 51.5952C174.619 51.0555 173.122 50.3195 171.871 49.3872L173.343 45.6704C174.177 46.2592 175.048 46.7621 175.956 47.1792C176.864 47.5717 177.833 47.8784 178.863 48.0992C179.893 48.2955 180.985 48.3936 182.138 48.3936C184.076 48.3936 185.475 48.0747 186.333 47.4368C187.192 46.7989 187.621 45.9648 187.621 44.9344C187.621 44.0267 187.327 43.3397 186.738 42.8736C186.149 42.3829 185.094 41.9781 183.573 41.6592L179.415 40.8128C177.035 40.3221 175.257 39.5003 174.079 38.3472C172.901 37.1941 172.313 35.6485 172.313 33.7104C172.313 32.0912 172.742 30.6805 173.601 29.4784C174.459 28.2763 175.661 27.344 177.207 26.6816C178.753 26.0192 180.556 25.688 182.617 25.688C184.457 25.688 186.162 25.9579 187.732 26.4976C189.302 27.0128 190.614 27.7611 191.669 28.7424L190.197 32.2752C189.142 31.392 187.989 30.7419 186.738 30.3248C185.487 29.8832 184.089 29.6624 182.543 29.6624C180.801 29.6624 179.44 30.0059 178.458 30.6928C177.501 31.3552 177.023 32.2752 177.023 33.4528C177.023 34.3605 177.317 35.0843 177.906 35.624C178.52 36.1637 179.55 36.5808 180.997 36.8752L185.119 37.6848C187.572 38.1755 189.388 38.9851 190.565 40.1136C191.743 41.2176 192.332 42.7141 192.332 44.6032C192.332 46.1488 191.915 47.5104 191.081 48.688C190.246 49.8411 189.069 50.7488 187.548 51.4112C186.027 52.0491 184.224 52.368 182.138 52.368ZM206.593 52V29.9568H198.019V26.056H219.915V29.9568H211.34V52H206.593ZM226.949 52V26.056H244.429V29.7728H231.512V36.9488H243.582V40.7024H231.512V48.2464H244.429V52H226.949ZM252.551 52V26.056H256.71L266.241 47.5104H265.1L274.631 26.056H278.753V52H274.447V32.7536H275.772L267.05 52H264.217L255.495 32.7536H256.857V52H252.551Z" fill="#A6A6A6"/>
<path d="M67.32 20V6.98H62.2V5.9H73.66V6.98H68.56V20H67.32ZM77.7936 20V5.9H83.3536C84.8069 5.9 85.9336 6.24 86.7336 6.92C87.5336 7.6 87.9336 8.56 87.9336 9.8C87.9336 10.6 87.7536 11.2867 87.3936 11.86C87.0336 12.42 86.5336 12.8533 85.8936 13.16C85.2536 13.4533 84.5136 13.6 83.6736 13.6L84.0536 13.38H84.3336C84.8803 13.38 85.3669 13.5133 85.7936 13.78C86.2203 14.0333 86.5603 14.4733 86.8136 15.1L88.7736 20H87.4136L85.5736 15.32C85.3203 14.64 84.9536 14.2067 84.4736 14.02C83.9936 13.82 83.3803 13.72 82.6336 13.72H79.0336V20H77.7936ZM79.0336 12.68H83.1936C84.3269 12.68 85.1869 12.4333 85.7736 11.94C86.3736 11.4467 86.6736 10.74 86.6736 9.82C86.6736 8.88667 86.3736 8.18 85.7736 7.7C85.1869 7.20667 84.3269 6.96 83.1936 6.96H79.0336V12.68ZM92.2231 20L98.3631 5.9H99.4831L105.723 20H104.423L102.663 15.94L103.243 16.24H94.5631L95.2431 15.94L93.5231 20H92.2231ZM98.9031 7.4L95.4831 15.42L95.0231 15.18H102.783L102.443 15.42L98.9431 7.4H98.9031ZM116.054 20.16C114.667 20.16 113.487 19.8733 112.514 19.3C111.554 18.7133 110.821 17.88 110.314 16.8C109.807 15.72 109.554 14.4333 109.554 12.94C109.554 11.4467 109.807 10.1667 110.314 9.1C110.821 8.02 111.554 7.19333 112.514 6.62C113.487 6.03333 114.667 5.74 116.054 5.74C117.067 5.74 117.967 5.9 118.754 6.22C119.541 6.52667 120.227 6.98667 120.814 7.6L120.294 8.6C119.641 8 118.987 7.56667 118.334 7.3C117.681 7.02 116.921 6.88 116.054 6.88C114.361 6.88 113.074 7.41333 112.194 8.48C111.314 9.53333 110.874 11.02 110.874 12.94C110.874 14.86 111.314 16.3533 112.194 17.42C113.074 18.4867 114.361 19.02 116.054 19.02C116.921 19.02 117.681 18.8867 118.334 18.62C118.987 18.34 119.641 17.9 120.294 17.3L120.814 18.3C120.227 18.9133 119.534 19.38 118.734 19.7C117.947 20.0067 117.054 20.16 116.054 20.16ZM125.786 20V5.9H127.026V12.38H127.066L134.106 5.9H135.766L127.786 13.16L127.806 12.44L136.346 20H134.646L127.066 13.3H127.026V20H125.786ZM140.169 20V5.9H141.409V20H140.169ZM147.11 20V5.9H148.11L157.55 18.54H157.11V5.9H158.25V20H157.27L147.83 7.36H148.25V20H147.11ZM170.293 20.16C168.773 20.16 167.5 19.88 166.473 19.32C165.46 18.7467 164.693 17.92 164.173 16.84C163.667 15.76 163.413 14.46 163.413 12.94C163.413 11.4467 163.68 10.1667 164.213 9.1C164.747 8.02 165.507 7.19333 166.493 6.62C167.493 6.03333 168.693 5.74 170.093 5.74C171.12 5.74 172.007 5.9 172.753 6.22C173.5 6.52667 174.18 6.98 174.793 7.58L174.253 8.58C173.813 8.16667 173.387 7.84 172.973 7.6C172.573 7.34667 172.14 7.16667 171.673 7.06C171.22 6.94 170.693 6.88 170.093 6.88C168.373 6.88 167.047 7.41333 166.113 8.48C165.193 9.53333 164.733 11.0267 164.733 12.96C164.733 14.9333 165.187 16.44 166.093 17.48C167 18.52 168.407 19.04 170.313 19.04C171.02 19.04 171.693 18.9733 172.333 18.84C172.973 18.7067 173.58 18.5133 174.153 18.26L173.853 19.06V13.78H170.113V12.74H174.953V19.18C174.42 19.46 173.72 19.6933 172.853 19.88C172 20.0667 171.147 20.16 170.293 20.16Z" fill="black"/>
<circle cx="31" cy="38" r="28" stroke="black" stroke-width="6"/>
<circle cx="31" cy="38" r="18.3469" fill="black"/>
<circle cx="31" cy="37.9999" r="9.88776" stroke="#008FF7" stroke-width="3"/>
<rect x="29.7347" y="19.653" width="2.53061" height="36.6939" fill="#008FF7"/>
<rect x="49.3469" y="36.7346" width="2.53061" height="36.6939" transform="rotate(90 49.3469 36.7346)" fill="#008FF7"/>
</svg>
